<?xml version="1.0" encoding="UTF-8" ?>
<!DOCTYPE svg PUBLIC "-//W3C//DTD SVG 1.1//EN" "http://www.w3.org/Graphics/SVG/1.1/DTD/svg11.dtd">
<svg width="220pt" height="65pt" viewBox="0 0 220 65" version="1.1" xmlns="http://www.w3.org/2000/svg">
<g id="#23527cff">
<path fill="#23527c" opacity="1.00" d=" M 1.62 1.62 C 22.54 1.60 43.46 1.60 64.38 1.62 C 64.40 6.87 64.40 12.13 64.38 17.38 C 57.04 17.38 49.69 17.45 42.34 17.34 C 42.46 29.36 42.38 41.37 42.38 53.39 C 41.44 53.39 39.56 53.39 38.61 53.39 C 38.60 40.13 38.60 26.87 38.62 13.62 C 45.96 13.62 53.31 13.55 60.65 13.66 C 60.60 10.81 60.75 7.96 60.48 5.12 C 59.17 4.38 57.44 4.86 55.97 4.69 C 39.13 4.77 22.28 4.70 5.44 4.73 C 5.40 7.28 5.39 9.84 5.37 12.39 C 4.43 12.39 2.55 12.39 1.61 12.38 C 1.60 8.79 1.60 5.21 1.62 1.62 Z" />
<path fill="#23527c" opacity="1.00" d=" M 24.50 15.42 C 25.85 15.45 27.20 15.48 28.55 15.52 C 28.59 29.49 28.59 43.47 28.55 57.44 C 30.20 57.44 31.86 57.45 33.51 57.47 C 33.53 58.82 33.54 60.17 33.54 61.53 C 30.51 61.59 27.49 61.58 24.46 61.51 C 24.43 46.15 24.35 30.78 24.50 15.42 Z" />
<path fill="#23527c" opacity="1.00" d=" M 76.61 18.62 C 77.56 18.61 79.44 18.61 80.38 18.61 C 80.39 22.73 80.48 26.86 80.27 30.97 C 83.07 26.30 90.30 26.37 93.69 30.32 C 100.01 36.96 98.14 49.69 89.46 53.45 C 87.81 53.44 86.17 53.43 84.53 53.44 C 83.13 52.39 81.75 51.33 80.43 50.18 C 80.79 52.93 78.69 52.83 76.62 52.65 C 76.59 41.30 76.60 29.96 76.61 18.62 M 81.83 33.75 C 79.76 36.41 80.39 39.95 80.40 43.08 C 80.51 45.82 82.73 47.80 84.42 49.74 C 86.88 49.61 89.91 49.89 91.48 47.53 C 94.47 42.69 94.75 34.91 89.47 31.51 C 86.88 29.50 83.44 31.42 81.83 33.75 Z" />
<path fill="#23527c" opacity="1.00" d=" M 103.61 18.61 C 104.56 18.61 106.44 18.61 107.38 18.61 C 107.33 29.98 107.54 41.34 107.27 52.70 C 106.38 52.69 104.60 52.68 103.71 52.67 C 103.48 41.32 103.66 29.97 103.61 18.61 Z" />
<path fill="#23527c" opacity="1.00" d=" M 154.70 20.33 C 160.32 20.79 166.75 18.87 171.71 22.28 C 175.16 24.94 174.35 29.62 174.48 33.42 C 173.38 35.07 172.24 36.69 171.06 38.29 C 167.06 39.62 162.84 39.47 158.69 39.45 C 158.69 43.75 158.72 48.05 158.72 52.35 C 157.35 52.51 155.98 52.53 154.61 52.49 C 154.65 41.77 154.48 31.05 154.70 20.33 M 158.70 23.44 C 158.70 27.76 158.70 32.07 158.71 36.39 C 161.85 36.29 164.96 35.87 168.09 35.56 C 170.86 32.85 171.27 28.86 169.81 25.38 C 166.44 23.31 162.53 23.12 158.70 23.44 Z" />
<path fill="#23527c" opacity="1.00" d=" M 49.56 29.94 C 53.55 27.36 58.33 27.14 62.91 27.76 C 65.76 29.02 68.18 31.67 68.33 34.90 C 68.54 40.74 68.33 46.58 68.38 52.42 C 67.38 52.39 65.37 52.34 64.37 52.31 C 64.54 51.73 64.87 50.57 65.04 49.99 C 62.76 51.87 60.14 53.84 57.00 53.46 C 53.86 54.06 51.66 51.62 49.53 49.76 C 49.46 46.30 48.35 42.03 51.27 39.38 C 54.93 35.72 60.41 36.69 65.09 36.58 C 64.48 34.88 63.81 33.19 63.10 31.53 C 58.48 29.74 53.82 31.49 49.70 33.67 C 49.66 32.74 49.59 30.87 49.56 29.94 M 55.18 40.51 C 54.10 41.88 53.10 43.30 52.13 44.74 C 52.68 46.17 53.22 47.60 53.74 49.05 C 56.02 49.58 58.36 49.69 60.70 49.73 C 63.38 46.88 65.09 43.22 64.79 39.24 C 61.54 39.27 58.34 39.82 55.18 40.51 Z" />
<path fill="#23527c" opacity="1.00" d=" M 112.94 27.65 C 114.31 27.88 116.39 27.05 117.04 28.80 C 118.37 31.29 119.10 34.04 120.17 36.65 C 120.83 38.30 121.50 39.96 122.20 41.59 C 122.98 43.58 123.78 45.56 124.53 47.56 C 124.57 47.04 124.65 46.00 124.69 45.48 C 125.46 43.89 126.16 42.27 126.83 40.64 C 128.56 36.29 130.44 32.00 132.02 27.59 C 132.95 27.62 134.81 27.66 135.74 27.68 C 134.38 32.76 132.19 37.55 130.18 42.38 C 129.49 44.04 128.83 45.71 128.18 47.39 C 126.21 51.87 124.87 56.78 121.33 60.37 C 119.16 60.53 116.99 60.70 114.82 60.83 C 114.75 60.11 114.61 58.67 114.54 57.95 C 116.51 57.58 118.46 57.08 120.37 56.45 C 121.69 53.87 122.35 51.01 120.93 48.31 C 120.20 46.68 119.51 45.03 118.80 43.39 C 118.16 41.71 117.50 40.03 116.81 38.37 C 115.26 34.90 113.82 31.36 112.94 27.65 Z" />
<path fill="#23527c" opacity="1.00" d=" M 179.59 31.99 C 179.71 30.47 179.25 28.40 180.96 27.58 C 183.23 27.06 183.28 29.64 183.36 31.15 C 184.68 27.65 188.81 27.19 192.04 27.62 C 193.56 27.46 195.19 29.05 194.10 30.50 C 190.72 30.49 187.37 30.98 184.54 32.97 C 182.42 39.23 183.73 45.91 183.37 52.37 C 182.44 52.37 180.56 52.37 179.63 52.37 C 179.62 45.58 179.62 38.78 179.59 31.99 Z" />
<path fill="#23527c" opacity="1.00" d=" M 199.31 29.30 C 201.95 27.06 205.59 27.44 208.79 27.75 C 211.09 28.48 212.56 30.51 214.22 32.12 C 215.91 36.78 216.36 42.02 214.82 46.77 C 213.79 49.88 211.11 51.89 208.41 53.49 C 205.54 53.27 202.33 53.94 199.88 52.06 C 196.03 49.41 194.86 44.52 194.68 40.12 C 195.18 36.23 195.86 31.76 199.31 29.30 M 202.40 31.41 C 197.60 35.25 197.14 43.20 200.88 47.98 C 202.66 49.55 205.37 51.03 207.65 49.59 C 211.36 48.36 212.17 44.07 212.50 40.68 C 212.25 37.54 211.71 33.90 209.01 31.86 C 207.20 30.29 204.43 30.21 202.40 31.41 Z" />
</g>
</svg>
